<?xml version="1.0" standalone="no"?>
<svg viewBox="0 0 200 200" xmlns="http://www.w3.org/2000/svg">
  <path fill="#8A3FFC" d="M45,-74.4C57.1,-71,64.7,-56.4,68.7,-42.1C72.6,-27.9,72.8,-13.9,72.9,0C72.9,14,72.8,28,67.7,40.3C62.6,52.6,52.6,63.2,40.5,65.1C28.4,67.1,14.2,60.3,-0.8,61.7C-15.8,63.1,-31.7,72.7,-46.1,72.1C-60.5,71.5,-73.5,60.7,-77.8,47C-82,33.3,-77.4,16.7,-72.1,3.1C-66.8,-10.5,-60.6,-21,-56.1,-34.1C-51.5,-47.2,-48.5,-63,-39.4,-68.1C-30.3,-73.2,-15.2,-67.6,0.7,-68.7C16.5,-69.8,32.9,-77.7,45,-74.4Z" transform="translate(100 100)" />
</svg>
